<svg id="Laag_1" data-name="Laag 1" xmlns="http://www.w3.org/2000/svg" viewBox="0 0 812.9 425.42"><defs><style>.cls-1{fill:#1e1e1c;}</style></defs><path class="cls-1" d="M164.48,407.7C124.23,380.61,21.65,386.41,22,448c.39,60.85,63.1,48.39,92.91,64.26s16.59,39.1-15.87,39.1c-41,0-65.45-20-65.45-20L18.55,564.09c85.93,43.35,152.13,15.48,156-36s-83.23-57.68-99.1-65.81S65.1,433,83.19,429s47.23-1.74,69.29,12Z" transform="translate(-18.55 -225.94)"/><polygon class="cls-1" points="180.52 169.89 180.52 205.11 239.87 205.11 239.87 357.89 284.13 357.89 284.13 205.37 343.36 205.37 343.36 169.89 180.52 169.89"/><path class="cls-1" d="M788.62,523.12c17-8.32,37.19-25.75,37.41-61.61.39-61.94-68.13-65.68-68.13-65.68H665.39v188h43V530.41h40.07l36.19,53.42h46.84Zm-35.17-27.7c-25.41,0-45.1.15-45.1.15v-65s20.11,0,43.17-.27c15.39-.18,31.54,12.74,31.54,32.78C783.06,482.68,768.84,495.42,753.45,495.42Z" transform="translate(-18.55 -225.94)"/><path class="cls-1" d="M506.68,395.83,473.85,469c-25.57-24.52-47.31-57.91-50-101.52,0,0-2.94-130.72,193.8-133.93,35.7-.59,73.47,7,123.88,16,0,0-153.81-54.71-268.39,2.58s-79,166.71-66.58,187.35a271.28,271.28,0,0,0,51.72,64.23,277.23,277.23,0,0,0,28.79,23c1.12.78,2.26,1.56,3.42,2.33,24.93,16.68,57.18,31.44,93.44,42.54a485.89,485.89,0,0,0,49.34,12.29l-82.65-188Zm-1.78,98.06,22.68-55.22,36.27,85.55A271.18,271.18,0,0,1,504.9,493.89Z" transform="translate(-18.55 -225.94)"/><path class="cls-1" d="M485.53,540.62l.14.09L468,583.83H422.29L448,526.46c-9.88-8.82-75-62.82-74.72-146,0,0-4.64-104.13,125.49-144.45-23.06,7.14-125.24,50.89-116.52,159.87,4.16,52,42.6,102.18,87.51,134.4l.08,0Q477.6,535.83,485.53,540.62Z" transform="translate(-18.55 -225.94)"/><polygon class="cls-1" points="239.1 407.56 180.65 404.73 239.1 399.82 239.1 407.56"/><polygon class="cls-1" points="575.42 400.27 575.42 407.34 635.9 404.82 575.42 400.27"/><polygon class="cls-1" points="279.87 383.18 279.87 424.34 310.71 424.34 310.71 416.98 290.32 416.98 290.32 383.18 279.87 383.18"/><polygon class="cls-1" points="353.03 424.34 366.06 393.37 378.97 424.34 389.42 424.34 370.71 383.18 360.77 383.18 343.36 424.34 353.03 424.34"/><path class="cls-1" d="M474.35,629.22s5.81-1.13,5.81-7.94c0-8.39-5.42-12.16-13.16-12.16H444.55v41.16h26.71s10.71-1.13,10.51-10.61S474.35,629.22,474.35,629.22Zm-8.51,14h-12v-9.87h12s4.31,0,4.31,4.94S465.84,643.24,465.84,643.24Zm0-17h-12v-9.88h12s4.31,0,4.31,4.94S465.84,626.22,465.84,626.22Z" transform="translate(-18.55 -225.94)"/><path class="cls-1" d="M550.82,612.21c-8.87-6-31.46-4.69-31.37,8.86.08,13.4,13.89,10.66,20.46,14.15s3.65,8.61-3.5,8.61a24.1,24.1,0,0,1-14.41-4.4l-3.32,7.22c18.93,9.55,33.51,3.41,34.36-7.93s-18.33-12.7-21.83-14.49-1.86-6.47,1.71-7.34,12.79,1.28,15.26,2.65Z" transform="translate(-18.55 -225.94)"/></svg>